<svg id="Layer_1" data-name="Layer 1" xmlns="http://www.w3.org/2000/svg" viewBox="0 0 16 16">
  <defs>
    <style>
      .cls-1 {
        fill: #fff;
      }
    </style>
  </defs>
  <g>
    <path class="cls-1" d="M2,8a6,6,0,1,1,6,6A6,6,0,0,1,2,8Zm6,4.77A4.77,4.77,0,1,0,3.22,8,4.78,4.78,0,0,0,8,12.77Z"/>
    <path class="cls-1" d="M8.92,9.7v1.18a.92.92,0,1,1-1.84,0V8.46A.93.93,0,0,1,8.64,7.8a.88.88,0,0,1,.28.66V9.7Z"/>
    <path class="cls-1" d="M8,6.78A1.23,1.23,0,1,1,9.22,5.57,1.22,1.22,0,0,1,8,6.78Z"/>
  </g>
</svg>
