<svg id="Layer_1" data-name="Layer 1" xmlns="http://www.w3.org/2000/svg" viewBox="0 0 16 16"><defs><style>.cls-1{fill:#fff;}</style></defs><path class="cls-1" d="M8,5.07,9.87,6.61l3,2.49v4.24c0,.14,0,.16-.15.16h-3V9.92H6.3V13.5h-3c-.17,0-.19,0-.19-.19v-1.1c0-1,0-2.08,0-3.11L6.25,6.51,8,5.07m0-.64s-.06,0-.14.1L2.72,8.77A.27.27,0,0,0,2.6,9c0,1.43,0,2.87,0,4.3a.62.62,0,0,0,.68.69H6.8V10.42H9.2V14h3.54a.61.61,0,0,0,.65-.66V9a.26.26,0,0,0-.11-.23L8.14,4.53c-.08-.06-.11-.1-.14-.1Z"/><path class="cls-1" d="M8,2.5a.62.62,0,0,1,.43.16l1.79,1.5.34.27.08.07,0,0,.76.6.05-1v0c0-.05,0-.08,0-.12V2.52h1.39V6a.7.7,0,0,0,.28.58l1.42,1.18L15,8.1l-.32.38L13,7.09,10.63,5.14l-2-1.69-.19-.16-.09-.08L8,3l-.32.26-.62.52L5.7,4.86,4.07,6.22,1.35,8.48l-.12-.14L1,8.1,3,6.47l.47-.38,1.09-.91L7.45,2.76a.8.8,0,0,1,.47-.26H8M8,2H7.88a1.4,1.4,0,0,0-.75.37l-4,3.33L.63,7.78a.34.34,0,0,0-.05.56L1,8.88a.39.39,0,0,0,.28.18.4.4,0,0,0,.27-.13L6,5.25,8,3.6l.28.23,4.37,3.64L14.43,9a.4.4,0,0,0,.25.11.31.31,0,0,0,.23-.12c.19-.22.38-.44.56-.67a.29.29,0,0,0-.05-.44l-.12-.1c-.6-.51-1.21-1-1.82-1.51a.25.25,0,0,1-.09-.2V2.42c0-.3-.1-.4-.4-.4H11.4c-.3,0-.4.1-.4.4V4s0,.08,0,.15l-.11-.09L8.75,2.27A1.15,1.15,0,0,0,8,2Z"/></svg>