<svg id="Layer_1" data-name="Layer 1" xmlns="http://www.w3.org/2000/svg" viewBox="0 0 16 16">
  <defs>
    <style>
      .cls-1 {
        fill: #fff;
      }
    </style>
  </defs>
  <g>
    <path class="cls-1" d="M8,3.5h4a1.91,1.91,0,0,1,1.62.79,1.74,1.74,0,0,1,.37,1c0,.77,0,1.53,0,2.3v2.92a1.92,1.92,0,0,1-1.31,1.84,2.2,2.2,0,0,1-.68.1H4a1.92,1.92,0,0,1-2-1.67,1.51,1.51,0,0,1,0-.3V5.47A1.92,1.92,0,0,1,3.48,3.56,2.6,2.6,0,0,1,4,3.5Zm0,8.44h4a1.37,1.37,0,0,0,1.45-1.46v-5A1.37,1.37,0,0,0,12,4.06H4A1.37,1.37,0,0,0,2.56,5.52v5a2.26,2.26,0,0,0,0,.26A1.37,1.37,0,0,0,4,11.94Z"/>
    <path class="cls-1" d="M9.37,8.48c-.12.13-.22.26-.33.37l-.79.76a.3.3,0,0,1-.5,0l-1-1-.11-.11a1.31,1.31,0,0,0-.12.11L4.11,10.9A1.07,1.07,0,0,1,4,11a.29.29,0,0,1-.45,0c-.11-.12-.09-.28.06-.42L5.07,9.19l1-1,.11-.12A.87.87,0,0,1,6.09,8L3.57,5.55a1.49,1.49,0,0,1-.12-.14.26.26,0,0,1,0-.33A.29.29,0,0,1,3.82,5L4,5.13,7.86,8.92,8,9.05l.12-.11L12,5.14,12.14,5a.27.27,0,0,1,.38,0,.25.25,0,0,1,0,.38c-.23.24-.46.47-.7.7L9.91,8l-.12.13a.56.56,0,0,1,.15.1l2.52,2.38c.2.2.16.45-.09.52a.28.28,0,0,1-.3-.09l-.68-.64L9.52,8.62Z"/>
  </g>
</svg>
