<svg id="Layer_1" data-name="Layer 1" xmlns="http://www.w3.org/2000/svg" viewBox="0 0 16 16">
  <defs>
    <style>
      .cls-1 {
        fill: #fff;
      }
    </style>
  </defs>
  <g>
    <path class="cls-1" d="M5.56,12.32c-.92.78-.92.78-1.78-.07l-.42-.42a.63.63,0,0,1,0-1,3.56,3.56,0,0,1,.36-.26A4.1,4.1,0,0,1,3.47,10c-.11-.5-.35-.77-.93-.7C2.22,9.3,2,9,2,8.69S2,7.76,2,7.3a.55.55,0,0,1,.62-.58.64.64,0,0,0,.8-.58,2.21,2.21,0,0,1,.34-.67,2.74,2.74,0,0,1-.43-.3.61.61,0,0,1,0-1c.27-.28.55-.55.82-.82a.66.66,0,0,1,1.09,0c.1.1.16.22.23.3a9,9,0,0,0,1.06-.43.51.51,0,0,0,.18-.37c0-.77.15-.89.93-.89h1c.49,0,.72.22.69.71s.09.58.47.67a3.86,3.86,0,0,1,.71.3l.29-.27c.41-.41.72-.41,1.12,0s.51.5.76.76a.63.63,0,0,1,0,1c-.27.24-.38.45-.14.76a.67.67,0,0,1,.12.29c.06.4.29.5.67.48s.71.2.71.69,0,.77,0,1.16a.63.63,0,0,1-.71.7c-.28,0-.57-.06-.65.34,0,.05-.32.11-.4.05a10.81,10.81,0,0,1-1.09-1.05A1,1,0,0,1,11,8.06,3,3,0,0,0,8.84,5.14a2.85,2.85,0,0,0-3.12,1,2.79,2.79,0,0,0-.39,3.2A2.86,2.86,0,0,0,8.18,11a.86.86,0,0,1,.73.29c.28.31.59.58.87.88s.21.42-.12.52a.47.47,0,0,0-.37.55c0,.6-.18.78-.77.79H7.36c-.42,0-.66-.22-.63-.64s-.09-.66-.53-.75A3.2,3.2,0,0,1,5.56,12.32Zm-.82.1c.44-.81,1-.56,1.69-.3s.88.46.78,1.09c0,.2.07.29.28.28a8.42,8.42,0,0,1,.87,0c.34,0,.5-.07.45-.43a.7.7,0,0,1,.37-.8c-.53-.68-.58-.71-1.36-.78l-.44-.05a3.49,3.49,0,1,1,4.13-3.49,1.06,1.06,0,0,0,.12.47,7.94,7.94,0,0,0,.58.72L12.29,9a7,7,0,0,1,.9-.14c.25,0,.33-.1.31-.34a5.75,5.75,0,0,1,0-.83c0-.35-.09-.46-.45-.45-.54,0-.66-.09-.83-.59a6.73,6.73,0,0,0-.32-.73.61.61,0,0,1,.15-.79c.14-.12.27-.25.35-.33L11.29,3.64c-.69.6-.69.6-1.6.24l-.12,0c-.71-.26-.72-.26-.74-1,0-.21-.05-.32-.29-.31s-.69,0-1,0c-.1,0-.27.18-.26.27.07.6-.23.84-.76,1.06-.69.28-1.28.52-1.69-.24L3.59,4.74c.83.38.67,1,.32,1.58a1.17,1.17,0,0,0-.05.11c-.25.68-.25.68-1,.72-.1,0-.29.1-.29.16,0,.47,0,.94,0,1.47.87-.22,1.12.26,1.42.9a1.1,1.1,0,0,1-.4,1.58Z"/>
    <path class="cls-1" d="M7.28,8.29,8.47,7l.38.34c-.48.49-.93,1-1.42,1.41-.07.06-.33,0-.43-.08-.32-.29-.61-.61-.93-1a1.66,1.66,0,0,0,.57,1.64,1.93,1.93,0,0,0,1.82.44A.51.51,0,0,1,9,10c.91.92,1.82,1.83,2.74,2.73a.75.75,0,0,0,1.15.1c.33-.32.29-.74-.11-1.15C11.9,10.76,11,9.86,10.11,9a.61.61,0,0,1-.21-.66A1.93,1.93,0,0,0,7.84,5.93l.29.38-.36.38c-.19-.21-.37-.41-.53-.62S7,5.79,7,5.73a.56.56,0,0,1,.36-.25,2.49,2.49,0,0,1,3.06,2.76.54.54,0,0,0,.18.55q1.3,1.29,2.58,2.61a1.25,1.25,0,0,1-.55,2.14,1.21,1.21,0,0,1-1.22-.41c-.86-.85-1.71-1.7-2.56-2.57a.56.56,0,0,0-.55-.19,2.48,2.48,0,0,1-2.79-3c0-.15.12-.38.21-.39a.64.64,0,0,1,.42.2C6.54,7.52,6.87,7.88,7.28,8.29Z"/>
  </g>
</svg>
