<svg xmlns="http://www.w3.org/2000/svg" viewBox="0 0 40 40"><defs><style>.cls-1{isolation:isolate;}.cls-2{fill:#a2bfdc;}.cls-3{fill:#393760;}.cls-4{fill:#a3b6bf;mix-blend-mode:multiply;opacity:0.46;}.cls-5{fill:#f7931e;}.cls-6{fill:#2f4572;}.cls-7{fill:#b1eced;}</style></defs><g class="cls-1"><g id="Layer_1" data-name="Layer 1"><path class="cls-2" d="M38.89,29.74c-.68,9.49-22.44,12.63-32.61,6.89C3.45,35,1.51,32.76,1.17,29.74-.39,15.87,8.8,3.16,19.35,3.16a18.73,18.73,0,0,1,12,4.71C36.16,12,39.66,19.1,38.89,29.74Z"/><path class="cls-3" d="M33.25,21.36c0,1.91-2.09,3.08-4.79,3.77a35.9,35.9,0,0,1-8.78.92C16.18,26,9.44,25.41,7,23.2a2.47,2.47,0,0,1-.91-1.84,7.34,7.34,0,0,1,2.25-5.28,7.78,7.78,0,0,1,5.43-2.19H25.57a7.73,7.73,0,0,1,6.06,2.89A7.26,7.26,0,0,1,33.25,21.36Z"/><path class="cls-3" d="M20,34.61a8.17,8.17,0,0,1-5.24-1.81c-2.26-1.84-3-4.41-2.25-4.47,1.12-.08,3.82,1.26,6.86,1.26,3.49,0,5.87-.88,7.67-.95h.23C29.09,28.63,26.86,34.61,20,34.61Z"/><path class="cls-4" d="M38.89,29.74c-.68,9.49-22.44,12.63-32.61,6.89,6.21,1,24.72,3.3,28.05-5.62,2.87-7.67-.67-17.9-2.94-23.14C36.16,12,39.66,19.1,38.89,29.74Z"/><path class="cls-3" d="M30.84,19.76A3.43,3.43,0,0,1,24.2,21,3.52,3.52,0,0,1,24,19.76a3.43,3.43,0,0,1,6.56-1.41A3.49,3.49,0,0,1,30.84,19.76Z"/><path class="cls-5" d="M27.41,16.33a3.44,3.44,0,0,1,3.13,2,3.49,3.49,0,0,1,.3,1.41A3.43,3.43,0,0,1,24.2,21,3.52,3.52,0,0,1,24,19.76a3.42,3.42,0,0,1,3.43-3.43Zm0-.59a4,4,0,0,0-4,4,4.11,4.11,0,0,0,.26,1.43,4,4,0,0,0,7.77-1.43,3.88,3.88,0,0,0-.35-1.65,4,4,0,0,0-3.66-2.37Z"/><path class="cls-6" d="M30.53,18.35c-1.28,3.09-4.45,3-6.32,2.64A3.31,3.31,0,0,1,24,19.77a3.43,3.43,0,0,1,6.55-1.42Z"/><circle class="cls-7" cx="26.12" cy="18.62" r="1.14"/><path class="cls-7" d="M30.1,20.42c.18.13-.07,1.32-.92,1.78s-1.75.11-1.78-.11.5-.21,1.37-.73S30,20.34,30.1,20.42Z"/><path class="cls-3" d="M15.62,19.76A3.43,3.43,0,0,1,9,21a3.52,3.52,0,0,1-.22-1.22,3.43,3.43,0,0,1,6.56-1.41A3.49,3.49,0,0,1,15.62,19.76Z"/><path class="cls-5" d="M12.19,16.33a3.44,3.44,0,0,1,3.13,2,3.49,3.49,0,0,1,.3,1.41A3.43,3.43,0,0,1,9,21a3.52,3.52,0,0,1-.22-1.22,3.42,3.42,0,0,1,3.43-3.43Zm0-.59a4,4,0,0,0-4,4,4.11,4.11,0,0,0,.26,1.43,4,4,0,0,0,7.77-1.43,3.88,3.88,0,0,0-.35-1.65,4,4,0,0,0-3.66-2.37Z"/><path class="cls-6" d="M15.31,18.35C14,21.44,10.86,21.35,9,21a3.31,3.31,0,0,1-.23-1.22,3.42,3.42,0,0,1,6.55-1.42Z"/><circle class="cls-7" cx="10.9" cy="18.62" r="1.14"/><path class="cls-7" d="M14.88,20.42c.18.13-.07,1.32-.92,1.78s-1.75.11-1.78-.11.5-.21,1.37-.73S14.75,20.33,14.88,20.42Z"/><path class="cls-5" d="M13.32,4.91a7.31,7.31,0,0,1,1.5-2.26,7,7,0,0,1,10.76.83,7,7,0,0,1,.86,1.59C19.17,4.87,13.32,4.91,13.32,4.91Z"/><path class="cls-4" d="M13.32,4.91a7.31,7.31,0,0,1,1.5-2.26c1.62.22,3.33.41,5.12.55,2,.16,3.86.25,5.64.28a7,7,0,0,1,.86,1.59Z"/></g></g></svg>